<svg class="icon" style="width: 1em;height: 1em;vertical-align: middle;fill: currentColor;overflow: hidden;" viewBox="0 0 1024 1024" version="1.1" xmlns="http://www.w3.org/2000/svg" p-id="909" data-spm-anchor-id="a313x.7781069.1998910419.i0"><path d="M533.333333 213.333333A320 320 0 0 0 213.333333 533.333333a320 320 0 0 0 320 320 320 320 0 0 0 320-320A320 320 0 0 0 533.333333 213.333333M298.666667 426.666667h85.333333a42.666667 42.666667 0 0 1 42.666667 42.666666v42.666667c0 21.333333-16.213333 38.4-36.693334 41.386667L439.893333 640H390.4L341.333333 554.666667v85.333333H298.666667m213.333333-213.333333h85.333333v42.666666h-85.333333v42.666667h85.333333v42.666667h-85.333333v42.666666h85.333333v42.666667h-85.333333a42.666667 42.666667 0 0 1-42.666667-42.666667v-128a42.666667 42.666667 0 0 1 42.666667-42.666666m170.666667 0h85.333333v42.666666h-85.333333v128h85.333333v42.666667h-85.333333a42.666667 42.666667 0 0 1-42.666667-42.666667v-128a42.666667 42.666667 0 0 1 42.666667-42.666666m-341.333334 42.666666v42.666667h42.666667v-42.666667" fill="" p-id="910" data-spm-anchor-id="a313x.7781069.1998910419.i1"></path></svg>