<svg class="icon" style="width: 1em;height: 1em;vertical-align: middle;fill: currentColor;overflow: hidden;" viewBox="0 0 1024 1024" version="1.1" xmlns="http://www.w3.org/2000/svg" p-id="558"><path d="M928 176a32 32 0 0 1 31.701333 27.648l0.298667 4.352a32 32 0 0 1-27.648 31.701333l-4.352 0.298667h-17.28l-67.882667 691.114667a32 32 0 0 1-27.434666 28.586666l-4.394667 0.298667H212.992a32 32 0 0 1-31.104-24.490667l-0.725333-4.394666L113.237333 240H96a32 32 0 0 1-4.352-63.701333l4.352-0.298667h219.605333l15.616-85.76a32 32 0 0 1 26.88-25.898667l4.608-0.341333h298.581334c13.909333 0 26.026667 8.96 30.336 21.845333l1.152 4.437334 15.530666 85.717333h219.690667z m-81.578667 64H177.578667L242.005333 896h539.989334l64.426666-656zM634.581333 128H389.418667l-8.746667 48h262.656L634.581333 128zM608 400.981333a32 32 0 0 0-32 32v256a32 32 0 0 0 64 0v-256a32 32 0 0 0-32-32M416 400.981333a32 32 0 0 0-32 32v256a32 32 0 0 0 64 0v-256a32 32 0 0 0-32-32" p-id="559" data-spm-anchor-id="a313x.7781069.1998910419.i0"></path></svg>